<svg width="60" height="60" viewBox="0 0 60 60" fill="none" xmlns="http://www.w3.org/2000/svg">
<rect width="60" height="60" rx="17" fill="#DA251D"/>
<path d="M50.125 26.2063C50.2178 23.5225 49.6309 20.8588 48.4188 18.4625C47.5964 17.4793 46.4551 16.8157 45.1938 16.5875C39.9767 16.1141 34.7379 15.9201 29.5 16.0063C24.2813 15.9162 19.0614 16.104 13.8626 16.5688C12.8347 16.7558 11.8835 17.2379 11.1251 17.9563C9.43755 19.5125 9.25005 22.175 9.06255 24.425C8.79051 28.4705 8.79051 32.5296 9.06255 36.575C9.11679 37.8414 9.30535 39.0985 9.62505 40.325C9.85113 41.272 10.3085 42.1482 10.9563 42.875C11.7199 43.6315 12.6933 44.141 13.7501 44.3375C17.7924 44.8365 21.8655 45.0433 25.9376 44.9563C32.5001 45.05 38.2563 44.9563 45.0625 44.4313C46.1453 44.2469 47.146 43.7367 47.9313 42.9688C48.4562 42.4436 48.8483 41.8008 49.0751 41.0938C49.7456 39.0362 50.075 36.8827 50.05 34.7188C50.125 33.6688 50.125 27.3313 50.125 26.2063ZM25.2626 35.8438V24.2375L36.3625 30.0688C33.25 31.7938 29.1438 33.7438 25.2626 35.8438Z" fill="#1F1F1F"/>
</svg>
